<svg xmlns:dc="http://purl.org/dc/elements/1.1/" xmlns:cc="http://creativecommons.org/ns#" xmlns:rdf="http://www.w3.org/1999/02/22-rdf-syntax-ns#" xmlns:svg="http://www.w3.org/2000/svg" xmlns="http://www.w3.org/2000/svg" xmlns:sodipodi="http://sodipodi.sourceforge.net/DTD/sodipodi-0.dtd" xmlns:inkscape="http://www.inkscape.org/namespaces/inkscape" version="1.1" inkscape:version="0.92.2 5c3e80d, 2017-08-06" width="32.25203246989628" height="53.62601623494815" sodipodi:docname="half-flat.svg" style=""><rect id="backgroundrect" width="100%" height="100%" x="0" y="0" fill="none" stroke="none" class="" style=""/>
  <metadata id="metadata9925">
    <rdf:RDF>
      <cc:Work rdf:about="">
        <dc:format>image/svg+xml</dc:format>
        <dc:type rdf:resource="http://purl.org/dc/dcmitype/StillImage"/>
        <dc:title/>
      </cc:Work>
    </rdf:RDF>
  </metadata>
  <defs id="defs9923"/>
  <sodipodi:namedview pagecolor="#ffffff" bordercolor="#666666" borderopacity="1" objecttolerance="10" gridtolerance="10" guidetolerance="10" inkscape:pageopacity="0" inkscape:pageshadow="2" inkscape:window-width="999" inkscape:window-height="795" id="namedview9921" showgrid="true" inkscape:zoom="3.4" inkscape:cx="67.794421" inkscape:cy="181.47367" inkscape:window-x="415" inkscape:window-y="55" inkscape:window-maximized="0" inkscape:current-layer="svg9919" inkscape:snap-global="false">
    <inkscape:grid type="xygrid" id="grid17"/>
  </sodipodi:namedview>
  
<g class="currentLayer" style=""><title>Layer 1</title><g id="g1095" class="">
    <path d="m14.189453,-12.113579940795907 c0.004600000000000003,0.002518100000000004 0.007300000000000013,0.007059300000000014 0.011720000000000022,0.009765600000000022 V-12.113579940795907 zM12.085938,-1.351861690795905 c-0.004500000000000009,0.000968000000000002 -0.012600000000000012,0.0012000000000000023 -0.017580000000000044,0.002000000000000003 v0.07031 c0.005100000000000008,-0.0182 0.011910000000000013,-0.053270000000000074 0.017580000000000044,-0.0722700000000001 zm2.117187,2.5742190000000003 c-0.1202850000000001,0.0018000000000000026 -0.2412250000000002,0.003900000000000008 -0.3613280000000006,0.00590000000000001 c-0.148676,0.002500000000000004 -0.29664,0.005300000000000006 -0.44531300000000046,0.007800000000000016 c-0.16405500000000026,0.002900000000000005 -0.3281010000000003,0.00590000000000001 -0.4921870000000003,0.00590000000000001 c-0.1721470000000002,-0.00028300000000000064 -0.3454370000000003,-0.0026000000000000055 -0.517578,-0.003900000000000008 c-0.10620400000000013,-0.0009480000000000017 -0.2122780000000002,-0.0013000000000000025 -0.3183600000000006,-0.002000000000000003 l0.002000000000000003,54.390625 c-0.0013000000000000025,0.003900000000000008 -0.0026000000000000055,0.007800000000000016 -0.003900000000000008,0.011720000000000022 c0.001400000000000003,-0.0011000000000000022 0.002500000000000004,-0.002900000000000005 0.003900000000000008,-0.003900000000000008 h0.002000000000000003 c8.356257,-6.397687 20.265445,-17.085421 20.267578,-22.992188 c0.06996000000000013,-4.65089 -3.35639,-8.421408 -9.064453,-8.482422 c-2.99647,0.0015000000000000033 -6.65332,1.242814 -9.06836,2.675781 zm5.833984,26.132813 c1.957376,-0.007600000000000012 2.884652,0.551884 3.613282,1.207031 c1.148096,1.106037 1.2191100000000001,2.5322649999999998 1.2148430000000001,3.9414059999999997 c0.006100000000000015,1.6494400000000002 -0.5255119999999991,3.622698 -1.033203,4.980469 c-1.283285,3.585867 -5.718432,8.499422000000001 -9.625,11.695312 c-0.005500000000000009,0.013100000000000016 -0.01016,0.025960000000000052 -0.01563,0.03906000000000001 l0.013670000000000024,-0.03906000000000001 l0.009800000000000024,-18.152343 c1.140832,-1.750539 3.637999,-3.6740090000000007 5.822265,-3.671875 z" style="fill:#000000;fill-opacity:1;stroke:none;stroke-width:1.0666666" transform="translate(-6.486816914730298e-7,-0.025634773075580597) scale(0.9375) " id="path10439-5"/>
    <rect transform="rotate(-32.082977294921875 -6.556510911208363e-7,-11.407752990722656) " y="16.325199484825134" x="-17.385367214679718" height="2.6662819385528564" width="27.533998489379883" id="rect4744" style="fill:#000000;fill-opacity:1;stroke:#969696;stroke-width:0;stroke-miterlimit:4;stroke-dasharray:none;stroke-dashoffset:0;stroke-opacity:1"/>
    <rect y="1.301897406578064" x="10.514736354351044" height="50.665382385253906" width="0.6425266861915588" id="rect285" style="opacity:1;vector-effect:none;fill:#000000;fill-opacity:1;stroke:#000000;stroke-width:0.32993168;stroke-linecap:butt;stroke-linejoin:miter;stroke-miterlimit:4;stroke-dasharray:none;stroke-dashoffset:0;stroke-opacity:1"/>
  </g></g></svg>